HIERARCHY
ROOT hip
{
	OFFSET 0.000000 0.000000 0.000000 
	CHANNELS 6 Xposition Yposition Zposition Xrotation Zrotation Yrotation
	JOINT abdomen
	{
		OFFSET 0.000000 3.402643 0.000000 
		CHANNELS 3 Xrotation Zrotation Yrotation
		JOINT chest
		{
			OFFSET 0.000000 8.438565 -0.680529 
			CHANNELS 3 Xrotation Zrotation Yrotation
			JOINT neck
			{
				OFFSET 0.000000 10.207942 -0.272212 
				CHANNELS 3 Xrotation Zrotation Yrotation
				JOINT head
				{
					OFFSET 0.000000 3.130431 0.000000 
					CHANNELS 3 Xrotation Zrotation Yrotation
					End Site
					{
						OFFSET 0.000000 3.130435 0.000000 
					}
				}
			}
			JOINT lCollar
			{
				OFFSET 3.470700 6.669187 -0.816635 
				CHANNELS 3 Yrotation Zrotation Xrotation
				JOINT lShldr
				{
					OFFSET 3.198488 0.000000 0.000000 
					CHANNELS 3 Zrotation Yrotation Xrotation
					JOINT lForeArm
					{
						OFFSET 10.139888 0.000000 0.000000 
						CHANNELS 3 Yrotation Zrotation Xrotation
						JOINT lHand
						{
							OFFSET 8.370511 0.000000 0.000000 
							CHANNELS 3 Zrotation Yrotation Xrotation
							End Site
							{
								OFFSET 4.083176 0.000000 0.000000 
							}
						}
					}
				}
			}
			JOINT rCollar
			{
				OFFSET -3.470700 6.669187 -0.816635 
				CHANNELS 3 Yrotation Zrotation Xrotation
				JOINT rShldr
				{
					OFFSET -3.198488 0.000000 0.000000 
					CHANNELS 3 Zrotation Yrotation Xrotation
					JOINT rForeArm
					{
						OFFSET -10.139888 0.000000 0.000000 
						CHANNELS 3 Yrotation Zrotation Xrotation
						JOINT rHand
						{
							OFFSET -8.370511 0.000000 0.000000 
							CHANNELS 3 Zrotation Yrotation Xrotation
							End Site
							{
								OFFSET -4.083176 0.000000 0.000000 
							}
						}
					}
				}
			}
		}
	}
	JOINT lThigh
	{
		OFFSET 5.308129 -1.633274 1.361059 
		CHANNELS 3 Xrotation Zrotation Yrotation
		JOINT lShin
		{
			OFFSET -2.041588 -20.007561 0.000000 
			CHANNELS 3 Xrotation Zrotation Yrotation
			JOINT lFoot
			{
				OFFSET 0.000000 -19.190928 -1.224953 
				CHANNELS 3 Xrotation Yrotation Zrotation
				End Site
				{
					OFFSET 0.000000 -2.449906 4.627600 
				}
			}
		}
	}
	JOINT rThigh
	{
		OFFSET -5.308129 -1.633274 1.361059 
		CHANNELS 3 Xrotation Zrotation Yrotation
		JOINT rShin
		{
			OFFSET 2.041588 -20.007561 0.000000 
			CHANNELS 3 Xrotation Zrotation Yrotation
			JOINT rFoot
			{
				OFFSET 0.000000 -19.190928 -1.224953 
				CHANNELS 3 Xrotation Yrotation Zrotation
				End Site
				{
					OFFSET 0.000000 -2.449906 4.627600 
				}
			}
		}
	}
}
MOTION
Frames: 19
Frame Time: 0.033333
15.947951 39.310814 -57.719902 2.134562 -6.889793 78.717934 0.000000 0.000000 0.000000 39.644390 9.587893 4.586843 -8.603516 0.000000 0.000000 -35.741341 -6.514544 11.658699 -2.957607 -0.090307 -0.002318 -64.958923 -11.475493 -11.094606 -38.579453 -27.476135 1.072011 31.320871 -28.369843 7.097609 2.957607 0.090307 -0.002334 56.733421 21.784744 -19.829220 22.934988 9.409396 9.466224 -32.416199 12.319975 19.932606 -52.508598 4.394663 6.440181 49.516651 5.811957 -3.524629 -5.187063 -4.951197 -5.251255 -16.344721 -19.066540 -13.312636 61.115406 -4.656887 6.748211 -9.310140 9.691806 17.515867 
16.875448 39.891266 -57.207657 1.963145 -8.139816 81.370979 0.000000 0.000000 0.000000 38.906670 10.711083 3.425257 -8.603516 0.000000 0.000000 -35.965240 -6.482782 10.153893 -2.957607 -0.090307 -0.002318 -63.278828 -12.294574 -10.681878 -41.436058 -29.060286 0.303381 31.043091 -26.843018 4.345044 2.957607 0.090307 -0.002334 58.291847 18.974941 -17.934042 27.516260 11.118625 9.329766 -34.959595 13.941569 16.201689 -51.442997 3.935081 6.739781 48.483620 5.455273 -4.237669 -4.019514 -6.488378 -5.095580 -24.320299 -17.786642 -12.044109 60.087395 -4.238236 6.705896 -9.673165 12.075509 17.067663 
17.737570 40.406227 -56.607384 1.693332 -9.536925 84.112923 0.000000 0.000000 0.000000 38.400978 12.079155 2.544164 -8.603516 0.000000 0.000000 -36.466133 -6.874536 8.462977 -2.957607 -0.090307 -0.002318 -62.072166 -13.016875 -9.791317 -44.164459 -30.610750 -0.405419 31.088818 -25.829258 1.592385 2.957607 0.090307 -0.002334 58.963528 16.271059 -17.029818 32.334690 12.988981 9.533759 -38.206612 15.913970 12.766400 -50.839859 3.552573 7.456656 47.547359 4.996732 -4.994244 -2.697381 -8.723072 -4.561728 -32.419140 -17.556469 -10.566853 57.219830 -3.337421 6.642863 -9.253631 13.588900 16.509089 
18.554256 40.833038 -55.890289 1.302958 -10.934740 87.212669 0.000000 0.000000 0.000000 38.147202 13.608214 1.995102 -8.603516 0.000000 0.000000 -37.195950 -7.680045 6.261146 -2.957607 -0.090307 -0.002318 -61.354919 -13.906920 -8.450212 -46.852715 -32.089191 -1.399293 31.169851 -25.253923 -0.787528 2.957607 0.090307 -0.002334 58.858082 13.860655 -16.883499 37.167488 15.112629 9.407237 -42.686771 18.220806 10.168115 -50.677147 3.074933 8.437317 46.828465 4.392749 -5.518787 -1.126705 -11.406219 -3.660806 -39.907452 -17.819458 -8.999987 52.953613 -2.489488 6.654701 -5.686950 13.455101 15.422222 
19.205748 41.060661 -55.102146 0.629887 -12.382088 91.025993 0.000000 0.000000 0.000000 37.948589 15.370714 1.737736 -8.603516 0.000000 0.000000 -38.133591 -8.859081 3.520599 -2.957607 -0.090307 -0.002318 -61.001804 -14.687094 -7.097419 -48.843510 -33.300999 -2.381940 31.084026 -25.584513 -2.256945 2.957607 0.090307 -0.002334 58.524597 11.956597 -17.908371 41.745625 17.018322 9.023680 -46.322086 20.107481 7.593868 -51.444782 2.490650 8.937425 46.961418 3.840283 -5.591794 0.352222 -13.522572 -3.651992 -45.036007 -17.976442 -6.817297 47.939796 -1.794982 6.215393 -1.675123 13.050746 13.877523 
19.897238 41.026558 -54.094891 -0.732186 -13.182554 96.287865 0.000000 0.000000 0.000000 37.582375 17.551727 1.320054 -8.603516 0.000000 0.000000 -38.883408 -10.119540 0.213712 -2.957607 -0.090307 -0.002318 -61.141285 -15.049866 -5.609458 -50.805904 -34.423267 -3.071015 30.882294 -25.944172 -3.602669 2.957607 0.090307 -0.002334 58.335320 9.874554 -19.065083 46.650921 19.079847 8.154687 -49.821819 22.221275 4.817534 -51.965134 1.707932 9.302143 47.508369 3.329290 -5.894710 1.428385 -15.304596 -4.286983 -48.797554 -18.241774 -4.841200 42.932793 -0.829555 6.002612 1.747342 11.791468 12.809155 
20.395090 40.739113 -53.110397 -2.433853 -12.830597 102.356712 0.000000 0.000000 0.000000 37.096008 19.504864 1.104701 -8.603516 0.000000 0.000000 -39.379017 -11.374924 -3.151007 -2.957607 -0.090307 -0.002318 -61.883823 -14.309475 -4.998919 -52.120667 -35.353188 -3.182315 31.186165 -26.203741 -5.574439 2.957607 0.090307 -0.002334 58.468407 7.918627 -20.732445 50.871071 21.010374 7.099056 -52.118721 24.143974 3.200022 -52.575851 1.572330 9.377400 48.708408 3.136750 -6.104931 1.388564 -16.580706 -6.126180 -51.115772 -18.405508 -2.474710 40.179779 0.195707 6.280775 5.084506 11.585658 13.019231 
20.799126 40.235592 -52.140182 -3.941123 -11.107141 108.356979 0.000000 0.000000 0.000000 36.663494 20.935619 1.166675 -8.603516 0.000000 0.000000 -39.609367 -12.483778 -6.961491 -2.957607 -0.090307 -0.002318 -62.915932 -12.910618 -5.175318 -52.950462 -36.377991 -3.321654 31.630705 -26.383131 -7.242099 2.957607 0.090307 -0.002334 58.092186 6.549158 -21.455137 54.887024 22.448883 5.842856 -54.205807 26.095015 1.751996 -53.130749 1.669484 8.736813 51.462582 3.201277 -6.155917 -0.354302 -16.461359 -8.130258 -52.444160 -19.548254 -0.807307 39.546940 0.947447 6.283560 8.335490 11.554968 13.702872 
21.129179 39.578323 -51.255287 -5.109985 -8.861688 113.357201 0.000000 0.000000 0.000000 36.234745 22.004408 1.361358 -8.603516 0.000000 0.000000 -39.415733 -13.459398 -10.536276 -2.957607 -0.090307 -0.002318 -64.286186 -11.166189 -5.349318 -53.356087 -37.252880 -3.094470 32.255157 -26.577097 -8.409534 2.957607 0.090307 -0.002334 57.547855 5.401330 -21.462553 58.427658 23.546612 4.578149 -55.745007 27.818567 0.578700 -53.213448 1.971323 8.083862 54.886696 3.639192 -6.228683 -2.487441 -15.547655 -10.028087 -52.615101 -21.024809 -0.365789 39.906181 1.357542 6.257178 10.154418 11.177558 14.342231 
21.319870 38.829960 -50.475655 -5.965511 -6.439842 117.506477 0.000000 0.000000 0.000000 35.571754 22.683725 1.211924 -8.603516 0.000000 0.000000 -39.299557 -14.027626 -13.615410 -2.957607 -0.090307 -0.002318 -65.147263 -8.576232 -5.214960 -53.849316 -38.104149 -2.929827 32.276157 -26.781317 -9.487159 2.957607 0.090307 -0.002334 57.192780 4.045144 -20.023813 61.151108 24.099840 3.422155 -56.317944 29.486996 0.528366 -51.540115 3.007343 5.958651 58.475571 3.745274 -5.887142 -4.759019 -13.546313 -11.654112 -51.360966 -22.292208 -1.549193 40.901291 1.250344 6.642703 10.156942 10.794296 14.694967 
21.334034 38.115814 -49.821213 -6.530253 -4.075041 120.885513 0.000000 0.000000 0.000000 34.737076 23.203833 0.537693 -8.603516 0.000000 0.000000 -39.325504 -14.344048 -15.875319 -2.957607 -0.090307 -0.002318 -65.386627 -4.705844 -5.090719 -54.854935 -39.375675 -2.887046 32.315628 -27.258619 -10.309999 2.957607 0.090307 -0.002334 57.193371 1.845526 -17.311861 63.137291 24.326462 2.581067 -56.814323 31.201441 0.726476 -49.038441 4.579386 3.030021 62.328762 4.183342 -5.519836 -6.853413 -11.171241 -12.978383 -49.334152 -23.202337 -3.532148 42.314354 1.035143 6.825331 7.492012 9.815108 15.064071 
21.134844 37.507034 -49.377407 -6.908193 -1.919567 123.386696 0.000000 0.000000 0.000000 33.711948 23.387865 -0.464811 -8.603516 0.000000 0.000000 -39.224129 -14.575584 -17.444374 -2.957607 -0.090307 -0.002318 -65.342384 0.527746 -4.720528 -56.680141 -40.941040 -2.961950 32.429741 -27.592508 -10.930486 2.957607 0.090307 -0.002334 57.402412 -1.442605 -13.782269 64.551422 24.411024 1.955225 -57.249958 32.430607 1.033782 -45.274174 6.541106 -0.170615 65.663429 4.680780 -5.070292 -8.741103 -8.643744 -13.245955 -47.350437 -23.855680 -5.795528 43.516983 0.655004 7.094316 5.572175 9.919874 15.770058 
20.685373 37.205425 -49.195332 -6.894715 -0.416885 124.933220 0.000000 0.000000 0.000000 32.703327 22.999491 -1.502012 -8.603516 0.000000 0.000000 -39.366409 -14.777101 -18.301765 -2.957607 -0.090307 -0.002318 -64.964088 6.373490 -4.290291 -58.440712 -42.750824 -3.280055 33.114979 -28.261925 -11.710762 2.957607 0.090307 -0.002334 57.685284 -5.651499 -10.448112 65.633453 24.662798 1.705489 -57.945885 33.372967 1.324710 -41.190247 8.983807 -3.329738 69.024727 5.354549 -3.921298 -10.311971 -6.067938 -12.098138 -45.766674 -24.508438 -7.284098 43.434666 0.371213 7.148729 4.893660 10.785270 16.642607 
19.979721 37.162708 -49.183884 -6.650544 0.387997 126.019218 0.000000 0.000000 0.000000 31.593508 22.424953 -2.691222 -8.603516 0.000000 0.000000 -39.719925 -15.116237 -18.566395 -2.957607 -0.090307 -0.002318 -64.276199 12.000220 -3.376267 -59.922150 -44.449383 -3.954899 34.163677 -28.891361 -12.228660 2.957607 0.090307 -0.002334 58.005653 -10.292028 -7.947774 66.342529 25.153990 1.746827 -59.213657 34.296829 1.329637 -36.642262 11.121276 -6.258797 71.537498 5.841625 -2.264825 -11.121058 -3.832669 -10.007812 -44.510246 -25.428755 -7.505557 41.811077 0.576511 6.944427 5.391420 10.904592 17.369623 
19.035114 37.370392 -49.323360 -6.348019 0.611462 126.719093 0.000000 0.000000 0.000000 30.194611 21.827679 -4.158836 -8.603516 0.000000 0.000000 -40.208809 -15.432932 -18.007978 -2.957607 -0.090307 -0.002318 -63.543278 16.798841 -1.913257 -61.132904 -45.817120 -4.480194 35.666782 -29.051058 -12.700364 2.957607 0.090307 -0.002334 59.292553 -15.078526 -6.988026 66.872200 25.812237 1.756894 -59.828777 35.648949 1.758640 -32.029251 12.978005 -8.121658 71.869705 5.842048 -1.533831 -10.405373 -1.979189 -8.358105 -43.478851 -25.961300 -6.946033 39.308922 0.976945 6.921207 7.281621 9.748872 16.265236 
17.640923 37.748825 -49.596535 -6.113310 0.174782 126.963692 0.000000 0.000000 0.000000 29.506359 20.909693 -4.946611 -8.603516 0.000000 0.000000 -42.077106 -15.929231 -17.092085 -2.957607 -0.090307 -0.002318 -64.556046 17.760328 -1.365041 -61.340630 -46.345650 -4.412795 36.879112 -29.097029 -13.097654 2.957607 0.090307 -0.002334 61.993439 -15.816508 -7.465263 66.654648 26.393799 2.433141 -59.398083 37.108875 2.932812 -27.723621 14.589501 -9.146936 70.558319 5.540333 -1.205391 -11.449445 -0.299349 -7.920273 -43.510361 -25.816547 -6.189620 38.947342 1.162373 6.324306 7.511277 7.755082 14.926029 
16.121531 38.169861 -49.889534 -5.898819 -0.650833 126.805519 0.000000 0.000000 0.000000 29.397528 19.781637 -5.110356 -8.603516 0.000000 0.000000 -44.235931 -16.487030 -16.310863 -2.957607 -0.090307 -0.002318 -66.948418 15.419643 -1.089087 -60.374104 -46.406887 -3.802950 37.658882 -28.541204 -13.436213 2.957607 0.090307 -0.002334 65.073662 -13.227669 -8.263988 65.434975 26.636499 3.559956 -59.097610 38.047501 3.533249 -24.948477 14.774297 -8.978448 68.876366 5.823486 -0.880356 -13.208235 0.565162 -8.084416 -43.791500 -25.287889 -5.789393 40.408680 1.044992 5.692178 6.895020 6.057577 13.521003 
14.542315 38.525513 -50.211094 -5.686049 -1.681145 126.534470 0.000000 0.000000 0.000000 28.982330 18.338009 -5.230824 -8.603516 0.000000 0.000000 -45.890408 -16.841970 -15.681657 -2.957607 -0.090307 -0.002318 -70.469658 10.822178 -0.818692 -58.440125 -45.905983 -2.921947 37.561771 -27.176025 -13.680717 2.957607 0.090307 -0.002334 67.440910 -8.333159 -8.762955 63.789726 26.546623 4.743995 -58.645569 38.144558 3.993662 -22.860508 14.149892 -8.269617 66.447212 5.929733 -0.857383 -15.318354 1.715465 -8.305127 -44.245628 -24.471165 -5.611908 42.969803 0.683993 5.188824 6.041436 4.861731 12.277110 
12.732754 38.738979 -50.433052 -5.122036 -2.490030 126.433853 0.000000 0.000000 0.000000 26.349342 16.008858 -5.666715 -8.603516 0.000000 0.000000 -44.611683 -17.123968 -15.791119 -2.957607 -0.090307 -0.002318 -74.190071 2.702809 1.150489 -57.351734 -45.097214 -3.298856 36.435974 -25.857904 -13.553411 2.957607 0.090307 -0.002334 68.082031 -0.589256 -8.584311 62.407242 25.926992 5.292679 -59.156754 38.690762 4.884610 -21.544371 12.506268 -7.190434 63.855618 6.195177 -1.116542 -17.840546 2.448710 -8.277867 -43.502033 -23.552248 -6.245698 46.398987 0.283575 5.159379 3.066994 2.689903 10.729710 
